<svg width="148" height="46" viewBox="0 0 148 46" fill="none" xmlns="http://www.w3.org/2000/svg">
<g id="Group 493">
<g id="Group">
<path id="Vector" fill-rule="evenodd" clip-rule="evenodd" d="M27.2485 20.4783L32.8851 17.006L32.7961 11.1723L22.114 17.7424L16.9794 15.0382L32.7072 5.33858L32.167 0L7.56183 15.2223L29.9175 27.7086L32.1416 32.698L35.8336 30.216L33.6222 24.2426L27.2485 20.4783Z" fill="#54B948"/>
<path id="Vector_2" fill-rule="evenodd" clip-rule="evenodd" d="M6.63397 16.0919C13.1729 19.8118 19.6991 23.373 26.2571 27.004C32.1097 30.2414 31.3853 33.9993 26.829 36.5068C22.7176 38.773 18.7396 40.9757 14.6599 43.3498V26.0518L6.63397 21.5765V16.0919ZM19.3242 28.7877V35.1039L24.6494 31.9807L19.3242 28.7877Z" fill="#4389C8"/>
<path id="Vector_3" fill-rule="evenodd" clip-rule="evenodd" d="M11.4002 26.4137L6.72957 23.7412L6.74863 36.9004L2.4656 34.4438L0 38.4937L11.4002 45.14V26.4137Z" fill="#FBC311"/>
</g>
<g id="Group_2">
<path id="Vector_4" d="M52.5402 10.4932C52.5402 11.1026 52.4322 11.6802 52.2098 12.2135C51.9874 12.7467 51.6633 13.1974 51.2312 13.5656C50.7737 13.9591 50.2208 14.2638 49.579 14.4797C48.9372 14.6955 48.1365 14.8034 47.1833 14.8034C46.5415 14.8034 45.9314 14.778 45.3595 14.7336C44.7876 14.6891 44.2919 14.6193 43.8598 14.5304V11.7056H44.1966C44.4953 11.8199 44.8066 11.9215 45.1371 12.0167C45.4612 12.1119 45.8806 12.1627 46.3826 12.1627C47.0371 12.1627 47.5455 12.0738 47.9014 11.9024C48.2572 11.7247 48.505 11.4834 48.6576 11.1724C48.8037 10.8677 48.88 10.5313 48.899 10.1631C48.9181 9.7949 48.9245 9.33151 48.9245 8.7602V3.19944H45.7217V0.634888H52.5275V10.4995L52.5402 10.4932Z" fill="#FBC311"/>
<path id="Vector_5" d="M69.1325 7.62392C69.1325 8.92524 68.8338 10.0869 68.2428 11.1153C67.6455 12.1436 66.8957 12.9308 65.9933 13.483C65.3134 13.8956 64.5635 14.1813 63.7501 14.3463C62.9367 14.5114 61.9708 14.5876 60.8587 14.5876H55.9339V0.634888H61.0049C62.1424 0.634888 63.1274 0.730106 63.9535 0.920543C64.7796 1.11098 65.4722 1.38394 66.0378 1.73307C67.0037 2.32343 67.7599 3.11057 68.3127 4.10719C68.8656 5.10381 69.1452 6.27817 69.1452 7.63027L69.1325 7.62392ZM65.4087 7.59853C65.4087 6.67809 65.2435 5.89095 64.9067 5.24346C64.5699 4.58963 64.0424 4.0818 63.318 3.71362C62.9494 3.52953 62.5745 3.40892 62.1869 3.34544C61.7992 3.28196 61.221 3.24387 60.4457 3.24387H59.537V11.9849H60.4457C61.3036 11.9849 61.9327 11.9468 62.333 11.8707C62.7334 11.7945 63.1274 11.6485 63.5086 11.4454C64.1632 11.0708 64.6461 10.5693 64.9511 9.94091C65.2562 9.31246 65.4087 8.53802 65.4087 7.61123V7.59853Z" fill="#4389C8"/>
<path id="Vector_6" d="M88.4696 3.33274H82.0387V5.92903H87.9994V8.62689H82.0387V14.5876H78.4547V0.634888H88.4696V3.33274Z" fill="#54B948"/>
<path id="Vector_7" d="M101.267 14.5938H97.8804V13.4321C97.2577 13.9082 96.6857 14.27 96.1647 14.5176C95.6436 14.7652 95.0272 14.8858 94.3091 14.8858C93.1462 14.8858 92.2502 14.5493 91.6211 13.8828C90.992 13.2163 90.6806 12.226 90.6806 10.9184V4.06262H94.0676V9.28694C94.0676 9.82017 94.0867 10.2582 94.1185 10.6137C94.1502 10.9691 94.2329 11.2611 94.3599 11.4897C94.4807 11.7182 94.6586 11.8896 94.9001 11.9975C95.1416 12.1054 95.4784 12.1562 95.9105 12.1562C96.1964 12.1562 96.5205 12.1054 96.87 11.9975C97.2195 11.8896 97.5563 11.7372 97.8868 11.5278V4.06262H101.274V14.5938H101.267Z" fill="#54B948"/>
<path id="Vector_8" d="M115.044 14.5938H111.657V9.36947C111.657 8.94417 111.638 8.51886 111.594 8.0999C111.549 7.67459 111.473 7.36989 111.371 7.16675C111.244 6.93823 111.06 6.76684 110.825 6.65892C110.59 6.55101 110.247 6.50023 109.814 6.50023C109.509 6.50023 109.198 6.55101 108.88 6.65257C108.563 6.75414 108.219 6.91284 107.851 7.12867V14.5938H104.464V4.06263H107.851V5.2243C108.448 4.75455 109.026 4.39907 109.579 4.14516C110.132 3.89759 110.749 3.77063 111.422 3.77063C112.56 3.77063 113.449 4.10072 114.091 4.76725C114.733 5.42743 115.051 6.4177 115.051 7.73807V14.5938H115.044Z" fill="#54B948"/>
<path id="Vector_9" d="M128.739 14.5938H125.352V9.36947C125.352 8.94417 125.332 8.51886 125.288 8.0999C125.244 7.67459 125.167 7.36989 125.066 7.16675C124.938 6.93823 124.754 6.76684 124.519 6.65892C124.284 6.55101 123.941 6.50023 123.509 6.50023C123.204 6.50023 122.892 6.55101 122.575 6.65257C122.257 6.75414 121.914 6.91284 121.545 7.12867V14.5938H118.158V4.06263H121.545V5.2243C122.142 4.75455 122.721 4.39907 123.274 4.14516C123.826 3.89759 124.443 3.77063 125.116 3.77063C126.254 3.77063 127.144 4.10072 127.785 4.76725C128.427 5.42743 128.745 6.4177 128.745 7.73807V14.5938H128.739Z" fill="#54B948"/>
<path id="Vector_10" d="M142.223 9.95348H134.49C134.541 10.7787 134.852 11.4072 135.43 11.8452C136.009 12.2832 136.86 12.499 137.985 12.499C138.697 12.499 139.389 12.372 140.057 12.1118C140.724 11.8515 141.258 11.5785 141.645 11.2865H142.02V13.9971C141.258 14.3018 140.539 14.524 139.86 14.6636C139.18 14.8033 138.436 14.8668 137.616 14.8668C135.5 14.8668 133.88 14.3907 132.755 13.4448C131.63 12.499 131.065 11.1405 131.065 9.38217C131.065 7.62381 131.598 6.26536 132.666 5.24969C133.734 4.23403 135.195 3.7262 137.057 3.7262C138.773 3.7262 140.063 4.15785 140.921 5.02752C141.785 5.89083 142.217 7.14137 142.217 8.76643V9.94714L142.223 9.95348ZM138.862 7.97294C138.843 7.26832 138.665 6.7351 138.334 6.37962C138.004 6.02414 137.489 5.84639 136.784 5.84639C136.136 5.84639 135.596 6.01779 135.176 6.35423C134.757 6.69066 134.522 7.23024 134.471 7.97929H138.855L138.862 7.97294Z" fill="#54B948"/>
<path id="Vector_11" d="M148 14.5938H144.613V0H148V14.5938Z" fill="#54B948"/>
</g>
<g id="Group_3">
<path id="Vector_12" d="M46.6558 38.1381V38.4364H44.241V40.6201H46.4651V40.9248H44.241V43.4132H43.8788V38.1317H46.6558V38.1381Z" fill="black"/>
<path id="Vector_13" d="M52.8705 43.5021C52.3749 43.5021 51.9745 43.3371 51.6632 43.0133C51.3518 42.6832 51.1993 42.2198 51.1993 41.6104C51.1993 41.001 51.3518 40.5313 51.6632 40.2075C51.9745 39.8774 52.3749 39.7124 52.8705 39.7124C53.3662 39.7124 53.7729 39.8774 54.0779 40.2075C54.3893 40.5376 54.5418 41.0074 54.5418 41.6104C54.5418 42.2135 54.3893 42.6896 54.0779 43.0133C53.7666 43.3371 53.3662 43.5021 52.8705 43.5021ZM52.8705 43.172C53.3344 43.172 53.6712 43.0197 53.8746 42.7213C54.0779 42.423 54.1796 42.0484 54.1796 41.6104C54.1796 41.1724 54.0779 40.7979 53.8746 40.4932C53.6712 40.1885 53.3344 40.0361 52.8705 40.0361C52.4067 40.0361 52.0699 40.1885 51.8665 40.4932C51.6632 40.7979 51.5615 41.1661 51.5615 41.6104C51.5615 42.0548 51.6632 42.423 51.8665 42.7213C52.0699 43.0197 52.4067 43.172 52.8705 43.172Z" fill="black"/>
<path id="Vector_14" d="M59.4667 43.4196H59.1045V40.6519C59.1045 40.3091 59.0854 40.0171 59.0473 39.7886H59.3841C59.4032 39.8457 59.4222 40.0488 59.4476 40.398C59.74 39.9409 60.1022 39.7061 60.547 39.7061L60.5915 40.0361C60.3182 40.0361 60.064 40.1504 59.8226 40.3726C59.5874 40.5948 59.4667 40.9185 59.4667 41.3311V43.4196Z" fill="black"/>
<path id="Vector_15" d="M73.1926 43.5022C72.4237 43.5022 71.7946 43.2609 71.3117 42.7722C70.8223 42.2834 70.5809 41.6168 70.5809 40.7662C70.5809 39.9156 70.8223 39.2491 71.3117 38.7603C71.801 38.2715 72.4237 38.0239 73.1926 38.0239C73.6629 38.0239 74.0823 38.0938 74.4572 38.2334L74.4127 38.5571C74.1268 38.4302 73.7137 38.3667 73.1926 38.3667C72.5254 38.3667 71.9852 38.5952 71.5786 39.0459C71.1655 39.4966 70.9621 40.0743 70.9621 40.7662C70.9621 41.4581 71.1655 42.0294 71.5786 42.4801C71.9916 42.9308 72.5317 43.153 73.1926 43.153C73.6438 43.153 74.0569 43.0705 74.4191 42.8991V40.9059H73.199V40.6075H74.7813V43.1467C74.292 43.3816 73.7582 43.5022 73.1926 43.5022Z" fill="black"/>
<path id="Vector_16" d="M81.0411 43.5021C80.5454 43.5021 80.1451 43.3371 79.8337 43.0133C79.5223 42.6896 79.3698 42.2198 79.3698 41.6104C79.3698 41.001 79.5223 40.5313 79.8337 40.2075C80.1451 39.8774 80.5454 39.7124 81.0411 39.7124C81.5367 39.7124 81.9434 39.8774 82.2485 40.2075C82.5598 40.5376 82.7124 41.0074 82.7124 41.6104C82.7124 42.2135 82.5598 42.6896 82.2485 43.0133C81.9371 43.3371 81.5367 43.5021 81.0411 43.5021ZM81.0411 43.172C81.505 43.172 81.8418 43.0197 82.0451 42.7213C82.2485 42.423 82.3501 42.0484 82.3501 41.6104C82.3501 41.1724 82.2485 40.7979 82.0451 40.4932C81.8418 40.1885 81.505 40.0361 81.0411 40.0361C80.5772 40.0361 80.2404 40.1885 80.037 40.4932C79.8337 40.7979 79.732 41.1661 79.732 41.6104C79.732 42.0548 79.8337 42.423 80.037 42.7213C80.2404 43.0197 80.5772 43.172 81.0411 43.172Z" fill="black"/>
<path id="Vector_17" d="M87.7008 40.9311V43.4195H87.3386V38.1381H87.7008V40.6264H90.84V38.1381H91.2022V43.4195H90.84V40.9311H87.7008Z" fill="black"/>
<path id="Vector_18" d="M96.5459 38.4303C96.6158 38.4938 96.6475 38.5763 96.6475 38.6715C96.6475 38.7667 96.6158 38.8493 96.5459 38.9191C96.476 38.9826 96.3997 39.0207 96.3044 39.0207C96.2091 39.0207 96.1328 38.9889 96.0629 38.9191C95.9994 38.8493 95.9612 38.7731 95.9612 38.6715C95.9612 38.57 95.993 38.4938 96.0629 38.4303C96.1328 38.3668 96.2091 38.3287 96.3044 38.3287C96.3997 38.3287 96.476 38.3605 96.5459 38.4303ZM96.4887 39.7888V43.4197H96.1265V39.7888H96.4887Z" fill="black"/>
<path id="Vector_19" d="M104.019 43.4196V43.0514C103.72 43.3497 103.327 43.5021 102.831 43.5021C102.335 43.5021 101.935 43.3371 101.617 43.007C101.299 42.6769 101.141 42.2071 101.141 41.5977C101.141 40.9883 101.299 40.5186 101.617 40.1948C101.935 39.8648 102.329 39.7061 102.805 39.7061C103.339 39.7061 103.752 39.9219 104.038 40.3472C104.064 40.0298 104.083 39.8457 104.102 39.7886H104.439C104.4 40.0235 104.381 40.3091 104.381 40.6519V43.4196C104.381 44.0226 104.223 44.4606 103.911 44.7336C103.593 45.0066 103.187 45.1399 102.678 45.1399C102.342 45.1399 102.037 45.0954 101.776 45.0129L101.814 44.6828C102.005 44.7653 102.291 44.8098 102.678 44.8098C103.136 44.8098 103.479 44.6892 103.695 44.4479C103.911 44.2067 104.026 43.8639 104.026 43.4196H104.019ZM104.019 41.3311C104.019 40.9185 103.905 40.6011 103.682 40.3726C103.46 40.1441 103.199 40.0361 102.894 40.0361C102.405 40.0361 102.049 40.1885 101.833 40.4868C101.617 40.7852 101.503 41.1597 101.503 41.6041C101.503 42.0484 101.611 42.4166 101.827 42.7213C102.043 43.026 102.399 43.172 102.888 43.172C103.377 43.172 103.752 42.9816 104.013 42.6007V41.3311H104.019Z" fill="black"/>
<path id="Vector_20" d="M109.484 43.4196H109.122V38.0303H109.484V40.3409C109.789 39.9219 110.196 39.7061 110.698 39.7061C111.124 39.7061 111.461 39.814 111.696 40.0299C111.931 40.2457 112.052 40.6266 112.052 41.1725V43.4196H111.69V41.1725C111.69 40.7916 111.613 40.506 111.454 40.3155C111.296 40.1251 111.016 40.0299 110.609 40.0299C110.304 40.0299 110.044 40.1441 109.815 40.3663C109.592 40.5948 109.478 40.9122 109.478 41.3248V43.4133L109.484 43.4196Z" fill="black"/>
<path id="Vector_21" d="M116.868 43.4195V38.1381H117.231V43.1148H119.645V43.4132H116.868V43.4195Z" fill="black"/>
<path id="Vector_22" d="M127.036 41.439C127.036 41.0264 126.934 40.69 126.737 40.4234C126.54 40.1568 126.222 40.0298 125.79 40.0298C125.358 40.0298 125.047 40.1821 124.85 40.4868C124.653 40.7915 124.557 41.1661 124.557 41.6041C124.557 42.0421 124.678 42.4166 124.913 42.715C125.148 43.0133 125.517 43.1657 126.006 43.1657C126.413 43.1657 126.737 43.1149 126.985 43.0197L127.017 43.3307C126.699 43.4386 126.362 43.4957 126 43.4957C125.466 43.4957 125.028 43.3307 124.691 43.0006C124.354 42.6705 124.189 42.2008 124.189 41.5977C124.189 40.9947 124.341 40.5249 124.64 40.1948C124.939 39.8648 125.333 39.6997 125.809 39.6997C126.286 39.6997 126.68 39.8521 126.979 40.1504C127.277 40.4488 127.43 40.8741 127.43 41.4073V41.7374H124.443V41.439H127.036Z" fill="black"/>
<path id="Vector_23" d="M131.687 39.7823H132.068L133.409 42.8992L134.75 39.7823H135.131L133.574 43.4133H133.25L131.693 39.7823H131.687Z" fill="black"/>
<path id="Vector_24" d="M142.248 41.439C142.248 41.0264 142.147 40.69 141.95 40.4234C141.753 40.1568 141.435 40.0298 141.003 40.0298C140.571 40.0298 140.259 40.1821 140.062 40.4868C139.865 40.7915 139.77 41.1661 139.77 41.6041C139.77 42.0421 139.891 42.4166 140.126 42.715C140.361 43.0133 140.73 43.1657 141.219 43.1657C141.626 43.1657 141.95 43.1149 142.198 43.0197L142.229 43.3307C141.912 43.4386 141.575 43.4957 141.213 43.4957C140.679 43.4957 140.24 43.3307 139.903 43.0006C139.567 42.6705 139.401 42.2008 139.401 41.5977C139.401 40.9947 139.554 40.5249 139.853 40.1948C140.151 39.8648 140.545 39.6997 141.022 39.6997C141.498 39.6997 141.892 39.8521 142.191 40.1504C142.49 40.4488 142.642 40.8741 142.642 41.4073V41.7374H139.656V41.439H142.248Z" fill="black"/>
<path id="Vector_25" d="M147.244 42.4103V38.0239H147.606V42.4103C147.606 42.9308 147.727 43.1911 147.974 43.1911L147.93 43.4958C147.472 43.4958 147.244 43.134 147.244 42.4103Z" fill="black"/>
</g>
<g id="Group_4">
<path id="Vector_26" d="M53.1946 25.2075C53.112 23.7221 53.0166 21.9193 53.023 20.5926H52.9785C52.6099 21.8368 52.1651 23.1825 51.6313 24.6489L49.744 29.8351H48.7018L46.9607 24.7441C46.4523 23.2333 46.0329 21.8622 45.7342 20.5926H45.6961C45.658 21.9256 45.5881 23.7031 45.4864 25.3091L45.2004 29.8986H43.885L44.6285 19.2024H46.3951L48.2189 24.3759C48.6573 25.6836 49.0196 26.8643 49.2992 27.9815H49.3437C49.6233 26.896 49.9982 25.7217 50.4748 24.3823L52.3875 19.2024H54.1541L54.815 29.8986H53.4551L53.1946 25.2012V25.2075Z" fill="#54B948"/>
<path id="Vector_27" d="M63.6099 29.9048L63.4892 28.9336H63.4447C63.0253 29.5303 62.1928 30.0762 61.0935 30.0762C59.5429 30.0762 58.7486 28.978 58.7486 27.8735C58.7486 26.0136 60.3945 24.9916 63.3621 25.017V24.8519C63.3621 24.2298 63.1841 23.0745 61.6145 23.0808C60.9028 23.0808 60.153 23.2903 59.6128 23.6522L59.2951 22.7254C59.9306 22.3128 60.8583 22.0525 61.8306 22.0525C64.1818 22.0525 64.7537 23.6585 64.7537 25.1947V28.0639C64.7537 28.7178 64.7855 29.3716 64.8681 29.8985H63.6099V29.9048ZM63.3938 25.9882C61.8814 25.9564 60.153 26.2294 60.153 27.7085C60.153 28.6226 60.7567 29.0415 61.4557 29.0415C62.4661 29.0415 63.1015 28.4067 63.3303 27.7592C63.3811 27.6132 63.3938 27.4546 63.3938 27.3212V25.9882Z" fill="#54B948"/>
<path id="Vector_28" d="M69.3737 24.6236C69.3737 23.7159 69.3483 22.9478 69.3102 22.2368H70.5366L70.5875 23.7413H70.6383C70.9942 22.7129 71.8457 22.0591 72.7798 22.0591C72.9323 22.0591 73.0404 22.0654 73.1675 22.0972V23.4112C73.0276 23.3794 72.8815 23.3731 72.6909 23.3731C71.7059 23.3731 71.0132 24.1158 70.8226 25.1569C70.7845 25.3536 70.7654 25.5822 70.7654 25.8107V29.9114H69.3737V24.63V24.6236Z" fill="#54B948"/>
<path id="Vector_29" d="M78.3908 25.7534H78.4225C78.6068 25.4868 78.8737 25.144 79.0898 24.8774L81.352 22.2304H83.0296L80.062 25.3853L83.4427 29.905H81.7397L79.0961 26.2168L78.3844 27.0167V29.905H76.9927V18.6375H78.3844V25.7471L78.3908 25.7534Z" fill="#54B948"/>
<path id="Vector_30" d="M87.6175 26.3185C87.6429 28.2038 88.8439 28.9846 90.2483 28.9846C91.246 28.9846 91.8624 28.8069 92.3771 28.5911L92.6186 29.5813C92.1293 29.8035 91.2778 30.0701 90.0577 30.0701C87.7001 30.0701 86.2767 28.5022 86.2767 26.1979C86.2767 23.8936 87.6493 22.0591 89.8925 22.0591C92.3962 22.0591 93.0507 24.2555 93.0507 25.671C93.0507 25.963 93.0317 26.1725 93.0062 26.3249H87.6175V26.3185ZM91.7035 25.3156C91.7162 24.4332 91.3413 23.0557 89.7781 23.0557C88.3546 23.0557 87.7446 24.3443 87.6302 25.3156H91.7035Z" fill="#54B948"/>
<path id="Vector_31" d="M98.84 20.0214V22.2304H100.848V23.2905H98.84V27.423C98.84 28.3815 99.1132 28.9211 99.8948 28.9211C100.257 28.9211 100.518 28.8767 100.702 28.8195L100.765 29.8796C100.492 29.9876 100.06 30.0701 99.5199 30.0701C98.8781 30.0701 98.3443 29.8606 98.0139 29.4797C97.6262 29.0544 97.4737 28.3815 97.4737 27.4801V23.2905H96.2854V22.2304H97.4737V20.3832L98.84 20.0214Z" fill="#54B948"/>
<path id="Vector_32" d="M104.788 24.7315C104.788 23.754 104.763 22.9541 104.725 22.2305H105.97L106.046 23.5381H106.078C106.637 22.605 107.559 22.0591 108.804 22.0591C110.666 22.0591 112.064 23.6207 112.064 25.9503C112.064 28.718 110.368 30.0765 108.569 30.0765C107.54 30.0765 106.656 29.6321 106.199 28.8704H106.167V33.0473H104.775V24.7315H104.788ZM106.18 26.7819C106.18 26.9787 106.199 27.1691 106.237 27.3469C106.491 28.3245 107.336 28.9846 108.328 28.9846C109.808 28.9846 110.666 27.7722 110.666 26.0138C110.666 24.484 109.866 23.1636 108.385 23.1636C107.432 23.1636 106.536 23.8365 106.269 24.8839C106.224 25.0616 106.18 25.2648 106.18 25.4489V26.7756V26.7819Z" fill="#54B948"/>
<path id="Vector_33" d="M116.195 18.6375H117.586V29.905H116.195V18.6375Z" fill="#54B948"/>
<path id="Vector_34" d="M126.572 29.9048L126.451 28.9336H126.407C125.987 29.5303 125.155 30.0762 124.055 30.0762C122.505 30.0762 121.711 28.978 121.711 27.8735C121.711 26.0136 123.356 24.9916 126.324 25.017V24.8519C126.324 24.2298 126.146 23.0745 124.577 23.0808C123.865 23.0808 123.115 23.2903 122.575 23.6522L122.257 22.7254C122.893 22.3128 123.82 22.0525 124.793 22.0525C127.144 22.0525 127.716 23.6585 127.716 25.1947V28.0639C127.716 28.7178 127.747 29.3716 127.83 29.8985H126.572V29.9048ZM126.356 25.9882C124.843 25.9564 123.115 26.2294 123.115 27.7085C123.115 28.6226 123.719 29.0415 124.418 29.0415C125.428 29.0415 126.064 28.4067 126.292 27.7592C126.343 27.6132 126.356 27.4546 126.356 27.3212V25.9882Z" fill="#54B948"/>
<path id="Vector_35" d="M137.813 29.6258C137.445 29.8035 136.644 30.0701 135.608 30.0701C133.289 30.0701 131.776 28.4958 131.776 26.1471C131.776 23.7984 133.391 22.0591 135.907 22.0591C136.733 22.0591 137.47 22.2686 137.845 22.4653L137.534 23.5381C137.191 23.3541 136.67 23.17 135.901 23.17C134.147 23.17 133.187 24.484 133.194 26.0773C133.194 27.8547 134.337 28.9465 135.869 28.9465C136.65 28.9465 137.184 28.7498 137.578 28.5784L137.813 29.6258Z" fill="#54B948"/>
<path id="Vector_36" d="M142.502 26.3185C142.528 28.2038 143.729 28.9846 145.133 28.9846C146.131 28.9846 146.747 28.8069 147.262 28.5911L147.503 29.5813C147.014 29.8035 146.163 30.0701 144.943 30.0701C142.585 30.0701 141.162 28.5022 141.162 26.1979C141.162 23.8936 142.534 22.0591 144.777 22.0591C147.281 22.0591 147.936 24.2555 147.936 25.671C147.936 25.963 147.917 26.1725 147.891 26.3249H142.502V26.3185ZM146.588 25.3156C146.601 24.4332 146.226 23.0557 144.663 23.0557C143.24 23.0557 142.629 24.3443 142.515 25.3156H146.588Z" fill="#54B948"/>
</g>
</g>
</svg>
